<?xml version="1.0" encoding="UTF-8"?>
<svg id="Camada_1" data-name="Camada 1" xmlns="http://www.w3.org/2000/svg" version="1.1" viewBox="0 0 100 100">
  <defs>
    <style>
      .cls-1 {
        fill: #ddfec7;
        stroke-width: 0px;
      }
    </style>
  </defs>
  <path class="cls-1" d="M92.29,55.36c-.7-5.22-4.32-8.88-9.18-9.28-4.97-.42-9.39,2.56-10.72,7.42-.34,1.25-.93,1.87-2.09,2.2-3.78,1.07-7.53,2.24-11.33,3.24-1.67.44-3.42.56-5.59.89.42-1.52.56-2.56.98-3.47,1.63-3.44,3.38-6.81,5.03-10.24.7-1.46,1.68-2.36,3.24-2.98,3.99-1.56,6.41-5.69,6.16-9.99-.25-4.27-3.21-8.1-7.26-9.27-4.04-1.16-7.58-.14-10.4,2.93-2.89,3.14-3.23,6.8-2.02,10.83.66,2.18,1.3,4.58,1.05,6.77-.32,2.75-1.44,5.43-2.45,8.05-.5,1.29-1.53,2.37-2.53,3.86-3.8-6.01-7.31-11.56-10.81-17.11-1.12-1.78-1.83-3.6-.43-5.61.3-.43.36-1.03.49-1.57,1.29-5.23-1.76-10.59-6.83-12.04-5.12-1.46-10.58,1.48-12.17,6.56-1.62,5.13,1.04,10.62,6.27,12.23,2.48.76,4.05,2.2,5.11,4.35,2.54,5.17,5.01,10.38,7.53,15.56,1.3,2.68.49,4.56-2.45,5.18-2.58.54-5.2.92-7.82,1.17-.93.09-2.06-.17-2.85-.67-2.28-1.44-4.66-2.2-7.34-1.76-4.86.8-8.35,4.86-8.44,9.74-.09,4.65,3.48,9,8.09,9.87,4.7.89,9.18-1.69,11.07-6.27.32-.77.9-1.76,1.59-2.01,2.51-.92,5.13-1.58,7.68-2.32.25.38.41.57.52.78,2.12,4.1,5.51,6.25,10.1,6.14,4.53-.11,7.64-2.49,9.69-6.52.54-1.06,1.65-2.15,2.74-2.54,5.08-1.83,10.23-3.45,15.37-5.06,1.69-.53,3.27-.26,4.87.78,2.56,1.66,5.47,1.8,8.33.82,4.48-1.54,7.38-6.18,6.78-10.66ZM85.7,62.3c-2.51,1.33-5.04,1.54-7.39-.41-1.77-1.48-3.91-1.37-5.8-.83-5.77,1.65-11.5,3.49-17.17,5.49-2.01.71-3.57,2.22-4.44,4.38-1.21,2.96-4.22,4.62-7.42,4.34-3.13-.28-5.45-2.36-6.46-5.42-.23-.68-1.51-1.63-2.06-1.5-4.02,1.02-7.99,2.22-11.92,3.54-.6.2-1.07,1.27-1.3,2.03-.97,3.24-3.92,5.42-7,5.04-3.47-.43-5.93-3.03-6-6.37-.08-3.27,2.32-6.18,5.65-6.73,1.92-.32,3.76.12,5.11,1.51,1.08,1.11,2.22,1.44,3.64,1.23,3.04-.45,6.09-.82,9.1-1.4,5.18-.99,7.42-5.12,5.21-9.9-2.52-5.46-5.23-10.83-8.01-16.16-1.52-2.9-3.67-5.06-7.21-5.71-3.39-.62-4.96-5.6-3.12-9.03,1.68-3.12,5.58-4.38,8.72-2.8,3.01,1.51,4.76,5.62,3.02,8.46-1.92,3.13-.87,5.72.45,8.46.45.94,1.02,1.82,1.58,2.7,2.9,4.56,5.81,9.11,8.73,13.66,1.92,2.99,4.3,3.92,6.87.32,4.46-6.25,7.09-13.22,3.69-21.05-1.12-2.58-.23-5.8,1.98-7.68,2.42-2.06,5.18-2.31,7.81-.69.19.1.38.19.56.29,2.46,1.84,3.43,4.31,2.76,7.27-.7,3.06-2.7,4.84-5.84,5.36-.59.1-1.38.49-1.63.97-2.24,4.49-4.44,9.01-6.54,13.58-.96,2.09-1.76,4.38-.02,6.43,1.7,2.01,4.14,1.49,6.21.94,5.45-1.44,10.83-3.15,16.23-4.77,1.21-.36,1.67-1.21,1.76-2.48.3-4.21,4.38-6.85,8.53-5.64.04.01.15,0,.15.01,0,0,0,0,0,0,3.03.78,4.36,3.01,4.84,5.86.43,2.54-1.02,5.51-3.3,6.72Z"/>
  <path class="cls-1" d="M62.08,27.83c.29.15.49.44.52.76.15,1.42-.26,1.65-1.93,1.23-1.74-.43-3.21-.08-4.68.91-.18.12-.41.17-.67.18-.72.03-1.21-.7-.93-1.36.08-.19.18-.36.32-.48,2.09-1.85,4.57-1.93,7.14-1.33.08.02.15.05.22.08h0Z"/>
  <path class="cls-1" d="M84.04,49.93c.26,0,.51.09.7.26,2.4,2.17,3.15,4.75,2.89,8.02-.04.54-.1,1.15-.38,1.58-.09.14-.23.25-.39.35-.47.29-1.09.12-1.36-.35-.12-.21-.21-.42-.23-.64-.13-1.45.09-2.94-.2-4.34-.2-.94-1.01-1.76-1.59-2.6-.13-.19-.28-.38-.42-.56-.41-.51-.22-1.26.38-1.51.26-.11.35-.08.61-.19,0,0,0,0,0,0Z"/>
  <path class="cls-1" d="M50.89,63.77c.33.56.03,1.27-.6,1.44-.34.09-.62.13-.74.01-2.32-2.1-4.9-2.19-7.74-1.43-.21.05-.46-.07-.72-.24-.42-.27-.57-.81-.35-1.26.1-.2.22-.38.38-.47,2.39-1.37,7.63-.51,9.44,1.49.12.13.21.27.33.47Z"/>
  <path class="cls-1" d="M10.68,74.06c-.08-.22-.08-.46,0-.68.58-1.72,1.11-3.46,1.82-5.13.04-.09.1-.16.18-.23.63-.56,1.63-.13,1.7.72.01.17,0,.33-.05.47-.81,2.07-1.68,4.08-.99,6.39.09.3-.19.98-.42,1.05-.4.11-1.13.01-1.29-.25-.4-.66-.62-1.43-.93-2.31Z"/>
  <path class="cls-1" d="M25.35,26.68c-.16-.05-.33-.06-.49-.02-.82.18-1.47.38-2.12.39-.21,0-.42-.05-.64-.13-.52-.19-.78-.78-.56-1.29.09-.23.21-.43.38-.55,1.43-.97,5.78-.67,7.01.48.14.13.23.32.3.54.18.56-.16,1.14-.74,1.26-.21.04-.41.06-.6.03-.9-.16-1.78-.47-2.55-.71Z"/>
</svg>